<svg xmlns="http://www.w3.org/2000/svg" version="1.1" viewBox="-5.0 -10.0 110.0 135.0">
 <path d="m48.742 88.141c-0.59375-0.21875-1.4883-1.0391-2.3945-2.1914-1.6094-2.0547-3.8555-5.9336-5.9531-10.289-1.3398-2.7812-1.5742-3.332-2.9727-6.9766-0.43359-1.1328-0.80859-2.0781-0.82812-2.1016-0.023438-0.023437-0.097656 0.16016-0.17188 0.40625-0.16797 0.58203-0.23438 0.63281-0.72656 0.52734-0.80469-0.16797-1.7109-0.56641-2.3945-1.0469-0.51953-0.36328-1.3008-1.1172-1.7812-1.7109-0.33594-0.41406-0.41797-0.49219-0.46484-0.42187-0.03125 0.050781-0.46094 0.72656-0.94922 1.5078s-0.93359 1.4336-0.99219 1.4531c-0.13281 0.039063-0.375-0.058594-0.8125-0.33203-0.84375-0.53125-1.5039-1.1602-2.0234-1.9414-0.15625-0.23828-0.30469-0.42969-0.32422-0.42969s-0.050781 0.0625-0.070313 0.13672c-0.070312 0.28125-0.89844 2.1562-1.4609 3.3086-0.32031 0.65625-0.64844 1.3711-0.72656 1.5859-0.29687 0.8125-0.42187 0.83594-0.96094 0.15625-1.1289-1.418-2.5742-4.457-3.0938-6.4961-0.046875-0.18359-0.10938-0.42969-0.14062-0.54297l-0.054688-0.21094-0.37109 0.46094c-0.46484 0.57812-1.2266 1.4688-1.8477 2.1562-0.26172 0.28906-0.60937 0.71094-0.77344 0.93359-0.49219 0.67188-0.62891 0.67188-0.91016-0.007812-0.47656-1.1523-0.83203-2.7031-1.0703-4.707-0.13672-1.1289-0.13672-3.3594 0-4.1719 0.30078-1.8008 0.75781-2.9922 1.668-4.3359 0.88281-1.3086 2.3047-2.6406 4.125-3.8633 1.8125-1.2188 4.5742-2.6992 5.9766-3.2031 0.32031-0.11328 0.92578-0.35938 1.3477-0.54688 1.9414-0.86328 3.5312-1.3984 5.2812-1.7812 0.42188-0.089844 1.0117-0.23828 1.3086-0.33203 0.73047-0.22266 2.1719-0.57422 2.9883-0.72656 0.36719-0.066406 0.69922-0.13281 0.73438-0.14453 0.039062-0.007813-0.074219-0.21094-0.28516-0.48828-0.62891-0.83594-1.3633-2.2617-1.7656-3.4375l-0.17969-0.52734-0.72656 0.44531c-2.1172 1.3008-3.8984 1.8477-4.5273 1.3867-0.53516-0.39453-0.51562-2.8008 0.042969-5.0195l0.15234-0.60938-0.8125 0.03125c-0.44531 0.019531-1.1758 0.003906-1.6172-0.027344-0.44531-0.03125-1.1953-0.089844-1.668-0.12109-0.93359-0.0625-1.3242-0.15234-1.4375-0.33594-0.10938-0.17578-0.089844-0.70312 0.039063-1.1094 0.32031-0.99219 1.2617-2.4297 2.2773-3.4609 0.23047-0.23438 0.41406-0.4375 0.39844-0.44922-0.011719-0.007812-0.34766-0.1875-0.74609-0.39453s-1.0586-0.59375-1.4727-0.86328c-0.41406-0.26562-0.91406-0.58203-1.1133-0.69922-0.56641-0.33984-0.77734-0.55469-0.77734-0.79688 0-0.23438 0.11719-0.42969 0.48438-0.80469 0.67969-0.69141 2.5156-1.6602 3.9648-2.0938 0.23047-0.070313 0.43359-0.13672 0.45703-0.14844 0.023437-0.015625-0.042969-0.19141-0.14453-0.39453-0.62109-1.2383-1.0898-3.1367-1.0898-4.4453-0.003907-1.1172 0.3125-1.3047 1.668-0.99219 1.043 0.23828 2.6367 0.74609 3.5078 1.1133 0.074219 0.03125 0.09375-0.023437 0.125-0.34766 0.14844-1.5938 1.0586-4.0547 1.7969-4.8477 0.27344-0.29297 0.29688-0.30859 0.5625-0.30859 0.39844 0 0.73047 0.25 1.9258 1.4336 0.54688 0.54297 1 0.98047 1.0078 0.97266 0.003906-0.007813 0.16797-0.25391 0.36328-0.54297 0.40625-0.60547 1.3008-1.5312 1.8242-1.8828 0.48828-0.33203 0.97266-0.54688 1.4688-0.65625 0.35547-0.078125 0.44922-0.078125 0.59375-0.019532 0.39062 0.16016 1.1328 1.1641 1.6133 2.1836 0.28906 0.61328 0.61328 1.4844 0.61328 1.6602 0 0.14453 0.0625 0.13672 0.37891-0.058593 0.44531-0.27344 1.2812-0.64844 1.8984-0.85547 1.1797-0.39062 2.3477-0.46484 3.1836-0.20312 0.44531 0.14062 0.51562 0.23828 0.62891 0.88672 0.17578 0.97656 0.011719 2.6094-0.37109 3.7227-0.054687 0.16406-0.089843 0.32031-0.074219 0.34766 0.015626 0.027344 0.12891 0.050782 0.24609 0.050782 0.625 0 2.4219 0.3125 3.375 0.58984 0.67578 0.19531 1.4609 0.54688 1.7305 0.77734 0.125 0.10547 0.25391 0.27734 0.28906 0.38281 0.058593 0.17187 0.046874 0.22266-0.10938 0.51172-0.09375 0.17578-0.48437 0.70703-0.86719 1.1836-0.78125 0.96875-1.6133 2.168-1.5391 2.2188 0.027344 0.019531 0.14844 0.09375 0.26953 0.16797 0.47266 0.29297 1.5508 1.1523 2.0781 1.6523 0.87109 0.82813 1.3359 1.5195 1.3359 1.9961 0.003906 0.39453-0.27734 0.57031-1.9062 1.2148-0.51562 0.20312-1.0625 0.43359-1.2227 0.51562l-0.28906 0.14844 0.66797 0.125c1.2148 0.22656 2.3828 0.57422 3.6367 1.082 0.37891 0.15234 0.70312 0.26953 0.71484 0.25391 0.015625-0.015625-0.015625-0.23047-0.066407-0.48438-0.24219-1.2031-0.23437-2.6016 0.023438-3.8281 0.0625-0.28906 0.13672-0.78906 0.16797-1.1133 0.078125-0.78516 0.17969-1.125 0.39453-1.3008 0.09375-0.078126 0.21094-0.14453 0.26562-0.14453 0.55078 0.003906 1.668 0.81641 3.0664 2.2305l0.75 0.75781 0.12891-0.39844c0.15234-0.46094 0.89453-2.1875 1.1289-2.6172 0.22266-0.41406 0.60547-0.75391 0.84375-0.75391 0.37891 0 0.80078 0.38281 1.6602 1.5 0.70703 0.92188 1.9375 2.8906 1.9375 3.1016 0 0.17969 0.16797 0.054687 0.84375-0.61719 0.79688-0.79297 2.6914-2.2734 3.2734-2.5547 0.78516-0.38281 1.1055-0.21484 1.3359 0.69922 0.21875 0.84766 0.39453 2.9609 0.34375 4.0898l-0.027344 0.63281 0.13281-0.042969c0.074218-0.023438 0.19922-0.074219 0.27734-0.11719 0.47656-0.24219 1.7031-0.60547 2.5508-0.75391 0.25391-0.046875 0.85547-0.074218 1.5273-0.074218 0.92969 0 1.1602 0.019531 1.4023 0.10156 0.65625 0.23047 0.71094 0.42969 0.32812 1.1992-0.44531 0.88672-1.7148 2.9141-2.4609 3.9297l-0.41016 0.55469 0.76562 0.039062c1.3672 0.066406 2.6992 0.41406 3.9102 1.0195 1.1484 0.57422 1.7227 1.0625 1.7227 1.4609 0 0.22656-0.63281 0.67969-2.0117 1.4492-0.4375 0.24609-0.86719 0.47656-0.95312 0.51562-0.15234 0.070312-0.14844 0.074219 0.47266 0.38281 1.1953 0.59766 2.1875 1.2891 3.0547 2.125 0.44141 0.42578 0.76953 0.87891 0.76953 1.0586 0 0.32031-0.46094 0.71875-1.332 1.1523-1.3164 0.65625-2.8242 1.0703-4.6328 1.2695l-0.875 0.09375 0.34375 0.41797c1.0117 1.2344 1.8906 2.9336 2.2148 4.2969 0.22266 0.93359 0.125 1.2109-0.47266 1.3516-0.67188 0.15625-2.2773 0.070313-3.4453-0.19141l-0.44922-0.10156 0.019531 0.78906c0.027344 1.0234-0.085938 1.7617-0.41797 2.75-0.375 1.1172-0.90625 2.0352-1.2422 2.1406-0.19531 0.0625-0.45703-0.14453-1.5-1.1602-0.56641-0.55469-1.3984-1.3398-1.8477-1.7461-0.44922-0.40625-1.0352-0.97656-1.3047-1.2695-0.48438-0.52734-0.49219-0.53125-0.52734-0.375-0.019531 0.085937-0.10547 0.44531-0.19141 0.79688-0.082031 0.35156-0.12891 0.64453-0.10156 0.65234 0.027343 0.007813 0.35937 0.1875 0.73437 0.39063 0.81641 0.44531 1.5117 0.93359 2.0859 1.457 0.23047 0.21094 0.53906 0.45312 0.6875 0.53516 2.3438 1.3516 5.3438 4.3867 6.6367 6.7227 0.12109 0.21875 0.48047 0.63672 1.0547 1.2227 1.5078 1.5469 2.4492 2.8477 3.3164 4.5859 0.91406 1.8359 1.293 3.3555 1.2266 4.9219-0.066406 1.5781-0.49219 2.8555-1.4414 4.3086-0.32812 0.50391-0.38672 0.54297-0.54297 0.375-0.16016-0.16797-1.0078-1.2891-1.4141-1.8711-0.26953-0.38281-0.33203-0.44922-0.36328-0.35938-0.26562 0.72656-0.375 0.97266-0.60547 1.3516-0.14453 0.24219-0.43359 0.66016-0.64063 0.92187-0.71875 0.91797-2.4766 2.6445-2.6953 2.6445-0.24219 0-1.4414-2.2969-1.8711-3.5859-0.16797-0.50391-0.35938-1.5781-0.35938-2.0312 0-0.089844-0.011719-0.16406-0.027343-0.16406-0.015626 0-0.24219 0.17578-0.51172 0.39062-0.46094 0.37109-1.8477 1.2656-2.4375 1.5781-0.28516 0.14844-0.44922 0.17969-0.57031 0.10156-0.039062-0.023437-0.16016-0.44141-0.27344-0.92969-0.19141-0.82031-0.20703-0.95703-0.21094-1.7812l-0.003906-0.89453-0.47266 0.27344c-0.92969 0.53516-2.1836 1.1289-2.9062 1.375-0.52344 0.17578-0.57031 0.13281-0.51953-0.5 0.050781-0.64844 0.28125-2.1406 0.44922-2.9336 0.19141-0.89844 0.47656-1.7852 0.77344-2.4102 0.13672-0.28906 0.23828-0.53125 0.23047-0.54297-0.011718-0.007812-0.089843 0.019532-0.17578 0.0625-0.26172 0.13281-1.1992 0.41797-1.7188 0.51953l-0.48438 0.09375-1.2578 0.97266c-2.4805 1.918-3.9844 3.1992-6.082 5.1758-1.6289 1.5391-2.793 2.8125-4.9609 5.4258-2.4219 2.9258-2.7461 3.3047-3.3633 3.9492-0.35156 0.36719-0.75391 0.8125-0.89062 0.98828-0.41797 0.53516-0.95703 0.71484-1.5234 0.50781zm0.73828-0.55078c0.19922-0.10156 0.57031-0.52344 0.75781-0.85547 0.49609-0.88281 0.97266-2.2617 1.8086-5.2344 1.3359-4.7305 1.7539-6.1328 2.418-8.0352 0.51172-1.4766 0.88672-2.4297 1.5039-3.8516 1.9336-4.4297 4.3477-9.0195 7.1016-13.496 0.26172-0.42969 0.48047-0.8125 0.48047-0.85938 0-0.082031-0.21875-0.90625-0.25-0.94141-0.007812-0.007812-0.22656 0.046875-0.48047 0.125-0.25391 0.078125-0.76172 0.21484-1.1211 0.30078l-0.65625 0.16016-0.92969 1.7734c-2.8086 5.3594-5.7188 11.016-6.1133 11.875-1.9961 4.3594-3.9766 9.6055-4.8984 12.973-0.50781 1.8633-0.72656 3.0312-0.76562 4.1484-0.03125 0.83594 0.015624 1.2305 0.19141 1.5977 0.16797 0.35547 0.60547 0.50391 0.95703 0.32031zm-1.707-1.3867c-0.03125-0.66797 0.03125-1.3359 0.21484-2.332 0.0625-0.33203 0.10156-0.63672 0.085938-0.67188-0.015625-0.039063-0.69922-1.1172-1.5234-2.3984-2.918-4.543-3.9688-6.3867-5.2969-9.2812-1.0586-2.3086-1.9219-4.4219-2.8789-7.0625-0.36719-1.0078-0.69141-1.9102-0.71875-2-0.050781-0.15625-0.058594-0.13672-0.12109 0.25-0.10938 0.66016-0.33203 1.6406-0.53906 2.3477l-0.19141 0.65234 0.92578 2.4062c1.5391 4 1.7383 4.4727 3.0234 7.1602 2.375 4.9609 5.0391 9.4375 6.6445 11.164 0.20703 0.22266 0.38281 0.40234 0.39062 0.40234 0.007813 0 0.003907-0.28516-0.011718-0.63281zm5.5898-2.7852c2.5469-3.0781 3.293-3.9141 4.9102-5.5391 1.9883-1.9961 4.0156-3.7773 6.5859-5.7773l1.1055-0.86328-0.80078-0.03125c-0.44141-0.019531-0.98828-0.050781-1.2188-0.074219l-0.41797-0.042968-1.9727 1.5977c-3.25 2.6289-4.1641 3.4492-6.9258 6.2266l-1.7852 1.7891-0.375 1.3281c-0.41016 1.457-0.83203 2.8047-1.0859 3.5l-0.16406 0.44531 0.22266-0.25c0.12109-0.13672 0.98828-1.1758 1.9258-2.3086zm-5.0234-1.1523c0.019531-0.10156 0.20312-0.76562 0.40625-1.4805l0.37109-1.2969-0.22656-0.84375c-0.125-0.46484-0.55469-2.0547-0.95703-3.5391-1.5938-5.8867-2.2852-8.8555-2.9062-12.484l-0.17969-1.0547-0.44922-0.039062c-0.24609-0.019532-0.66797-0.089844-0.9375-0.15234-0.26953-0.0625-0.5-0.11719-0.51563-0.11719-0.035156 0-0.015624 0.14844 0.21094 1.6133 0.64062 4.1523 1.8477 10.238 2.7539 13.875 0.33594 1.3516 0.89844 3.3984 0.99609 3.6328 0.11719 0.28516 1.3125 2.125 1.3594 2.0938 0.023437-0.015625 0.054687-0.10547 0.074219-0.20703zm30.344-0.81641c1.168-1.1094 2.0195-2.1523 2.4844-3.0469 0.29688-0.57031 0.53516-1.4883 0.65625-2.5273 0.074219-0.62891 0.085937-1.0938 0.0625-2.1914-0.039063-1.7695-0.21484-3.0391-0.65625-4.6914-0.16797-0.63281-0.5625-1.832-0.66797-2.0273-0.054688-0.10156-0.0625-0.10156-0.1875 0.019531-0.17188 0.16406-0.71484 0.20703-1.1406 0.089844-0.16797-0.046875-0.3125-0.074219-0.32422-0.0625-0.011718 0.007812 0.019532 0.52734 0.070313 1.1484 0.046875 0.62109 0.11719 1.582 0.15234 2.1328 0.078126 1.1992 0.085938 5.1914 0.011719 5.5039-0.039062 0.16406-0.085937 0.22656-0.17188 0.23828l-0.12109 0.019532 0.03125-1.6836c0.039063-2.0703-0.03125-3.8164-0.29297-7.1172l-0.035156-0.42578-0.55078-0.30078c-0.45312-0.25-0.55469-0.28516-0.57422-0.21094-0.070313 0.23828-0.76953 3.5312-0.91406 4.3164-0.19141 1.0273-0.48828 3.168-0.55859 4.0586-0.078125 0.95703 0.046875 2.8086 0.25391 3.6992 0.16797 0.73438 0.75781 2.0469 1.4883 3.3203 0.12891 0.22266 0.24219 0.40234 0.25781 0.40234s0.34375-0.29688 0.72656-0.66016zm-21.969-5.1797c1.3633-1.2734 2.1055-1.9141 4.293-3.6836l1.9805-1.6016 0.003907-0.26953c0.003906-0.58984 0.67578-2.1445 1.3047-3.0312l0.35547-0.5-0.95312-0.03125c-1.0078-0.039063-1.5781-0.12891-2.1992-0.36328-0.49219-0.18359-0.94922-0.49219-0.94922-0.63672 0-0.14844 0.60547-0.73438 1.625-1.5703 0.45312-0.36719 0.8125-0.67969 0.80078-0.69141-0.011718-0.007813-0.24219-0.082031-0.51562-0.15625-0.53906-0.14844-1.3672-0.53125-2.0234-0.93359-0.37109-0.22656-0.42578-0.24609-0.48438-0.16797-0.10938 0.14453-1.8555 3.6289-2.3516 4.6875-1.5859 3.3906-2.4766 5.6758-3.4414 8.8281-0.34766 1.1367-1.0625 3.5859-1.0625 3.6484 0 0.015625 0.60547-0.58203 1.3477-1.3203 0.74219-0.73828 1.7617-1.7305 2.2656-2.2031zm27.328 2.7695c0.51172-0.79687 0.90625-1.7539 1.1211-2.7383 0.13281-0.60938 0.16016-1.9453 0.050782-2.625-0.39453-2.457-1.9805-5.3711-4.1094-7.5469-0.51953-0.53125-0.54297-0.54688-0.50781-0.36328 0.023438 0.125 0.16797 0.34766 0.39453 0.61328 1.6133 1.8789 2.5781 4.5 2.5938 7.0195 0.003906 0.76953-0.027344 0.91016-0.19531 0.84766-0.066406-0.027344-0.089844-0.20312-0.12109-0.93359-0.085937-2.1953-0.67578-4.0586-1.8359-5.793-0.39844-0.59766-0.69141-0.96875-0.61719-0.77734 0.21875 0.56641 0.66797 1.9688 0.80469 2.5195 0.60938 2.4453 0.77344 5.2852 0.42578 7.3203l-0.078125 0.44531 0.27734 0.41797c0.39062 0.58203 1.4453 2 1.4922 2 0.019531 0 0.15625-0.17969 0.29688-0.40234zm-38.449-1.6602c-1.0234-4.0234-2.2617-10.242-2.9805-14.949-0.10938-0.71875-0.20312-1.3086-0.21094-1.3086-0.007813-0.003906-0.22266-0.0625-0.48438-0.13672-1.25-0.34375-2.8086-1.1406-3.7539-1.918-0.15234-0.125-0.32031-0.26172-0.36719-0.29688-0.082031-0.0625-0.089844 0.027344-0.0625 1.168l0.027344 1.2383 0.32031 0.97266c1.4805 4.5 3.7227 9.7305 5.5781 13.012 0.85938 1.5195 2.2578 3.8047 2.3008 3.7617 0.011718-0.007813-0.15234-0.70703-0.36719-1.543zm5.1094-2.3594c0.94141-2.4648 2.1836-5.4102 3.0391-7.2031 0.39844-0.83594 3.1875-6.2383 5.6172-10.887 0.53125-1.0156 0.96875-1.8594 0.96875-1.8711 0-0.03125-0.61328 0.11328-1.0742 0.25-0.57422 0.17188-1.0938 0.22656-1.25 0.12891-0.16016-0.10156-0.15625-0.22266 0.003906-0.46484 0.17578-0.25781 0.23828-0.625 0.37109-2.1406 0.0625-0.70312 0.125-1.3867 0.14453-1.5156 0.03125-0.22266 0.027343-0.23438-0.097657-0.23828-0.82812 0-2.4727-0.28906-3.8008-0.66797-0.42969-0.12109-1.0547-0.28516-1.3906-0.36719-0.33594-0.078125-0.78516-0.19531-1-0.26172-0.35156-0.10547-0.53516-0.11719-1.918-0.125-1.6055-0.007812-2.418-0.0625-3.6875-0.25391-0.42188-0.0625-0.77734-0.10547-0.79297-0.089844-0.011719 0.015625 0.17187 0.26953 0.40625 0.57422 0.85547 1.1016 1.9883 2.8828 2.4375 3.832 0.12891 0.27734 0.46484 1.0469 0.74219 1.7148 0.27734 0.66797 0.60547 1.4141 0.73047 1.6562 0.14062 0.28125 0.21094 0.48438 0.1875 0.55078-0.042969 0.14062-0.26953 0.25391-0.79297 0.39453-0.375 0.10156-0.625 0.12109-1.9844 0.14062-0.85547 0.015625-1.7305 0-1.9453-0.027343-0.21484-0.027344-0.39844-0.042969-0.41406-0.03125-0.039063 0.03125 0.21484 2.2227 0.30859 2.6562 0.078125 0.37109 0.070312 0.64453-0.019531 0.64453-0.18359 0.003906-0.18359 0.09375-0.011719 1.1172 0.42188 2.5312 1.1016 5.6406 1.8906 8.6836 0.42188 1.6211 1.9219 7.2031 1.9844 7.3789 0.015625 0.046875 0.23828-0.50391 0.48828-1.2227 0.25391-0.71875 0.64062-1.7812 0.86328-2.3633zm22.562 2.9609c0.84375-0.50781 1.6797-1.0977 2.1172-1.4961l0.22266-0.20312 0.027343-1.1055c0.023438-0.90234 0.070313-1.3867 0.25781-2.6602 0.125-0.85547 0.24219-1.6562 0.25781-1.7812 0.035156-0.25391 0.058593-0.30859-0.29297 0.64062-0.27344 0.74609-0.62109 1.4961-1.1953 2.5664-0.54688 1.0234-0.61328 1.1133-0.75 0.97656-0.082031-0.082031-0.042968-0.17578 0.44141-1.0781 0.28906-0.54688 0.58203-1.1133 0.64844-1.2656l0.12109-0.27344-0.23438 0.27344c-0.56641 0.66016-1.7695 1.6836-2.6211 2.2227l-0.25391 0.16016-0.039063 0.41016c-0.0625 0.65625 0.003906 1.5352 0.16406 2.2344 0.082031 0.35156 0.16016 0.69531 0.17578 0.76563 0.015625 0.070312 0.042969 0.125 0.0625 0.125s0.42188-0.23047 0.89062-0.51563zm-4.375-1.7461c2.4297-1.0273 4.957-2.7734 5.9375-4.1055 0.42578-0.57812 0.87109-1.5625 1.4023-3.1172 0.25781-0.75391 0.89062-2.8672 0.89062-2.9766 0-0.023437-0.16797-0.17188-0.375-0.32812l-0.375-0.28516-0.1875 0.21484c-0.33984 0.39062-1.7344 2.1445-2.2031 2.7656-0.64844 0.86719-1.2617 1.7617-1.8125 2.6406-0.34766 0.55469-0.50781 0.76172-0.59766 0.77344-0.20703 0.027344-0.15234-0.17578 0.19141-0.73047 0.95703-1.5547 2.4883-3.6484 3.918-5.3516l0.42578-0.50391-0.46484-0.39844c-0.25391-0.21875-0.48828-0.39844-0.51562-0.39844s-0.26172 0.14062-0.51562 0.31641c-2.8047 1.918-5.1797 5.1289-5.9375 8.0352-0.23047 0.88672-0.61328 3.1562-0.61328 3.6484 0 0.16016 0.011718 0.15625 0.83594-0.19141zm-1.6602-5.5195c0.64062-0.13672 1.3945-0.37891 1.8945-0.60547 0.33984-0.15625 0.37891-0.19141 0.60156-0.57422 0.65625-1.1289 1.4883-2.207 2.4727-3.2031 0.62891-0.63672 0.65625-0.66797 0.39062-0.52344-2.0742 1.1641-4.0742 2.1914-4.1758 2.1523-0.042968-0.019532-0.082031-0.078126-0.082031-0.14063 0-0.085937 0.21875-0.22266 0.98828-0.62109 1.1797-0.60938 3.457-1.8555 3.4375-1.875-0.007812-0.007813-0.22656 0.058593-0.48047 0.14844-1.9922 0.69922-4.5938 1.332-6.3828 1.5469l-0.79688 0.097657-0.23438 0.30859c-0.62891 0.81641-1.0859 1.6875-1.418 2.6914-0.14453 0.43359-0.16797 0.55859-0.10937 0.59375 0.039062 0.023437 0.28516 0.0625 0.55078 0.082031 0.26172 0.019531 0.51172 0.046875 0.55859 0.058593 0.046876 0.015626 0.57031 0.015626 1.168 0 0.82422-0.015624 1.2148-0.050781 1.6211-0.13672zm-43.91-1.3164c0.054688-0.14063 0.35547-0.78516 0.66797-1.4336 0.64453-1.3281 1.2305-2.6562 1.5039-3.4102l0.18359-0.50781-0.29688-0.71875c-0.875-2.0898-1.3633-4.6836-1.5703-8.3281l-0.042969-0.72266-0.10156 1.418c-0.054687 0.78125-0.17187 2.4336-0.25391 3.6719-0.082031 1.2383-0.16797 2.2852-0.19141 2.3203-0.058594 0.09375-0.23047 0.085938-0.31641-0.019531-0.058594-0.070313-0.039063-0.58203 0.10938-2.8203 0.097656-1.5039 0.19531-2.8242 0.21094-2.9297 0.050782-0.3125-0.011718-0.1875-0.28906 0.58203-0.57422 1.5859-1.5938 3.4609-2.7578 5.0664-0.1875 0.25391-0.32812 0.50781-0.32812 0.58594 0 0.21875 0.30859 1.4219 0.53125 2.0508 0.70312 2.0195 1.6719 3.9297 2.7227 5.375 0.085938 0.11719 0.11719 0.09375 0.22266-0.17969zm12.941-3.3594c0.59375-1.9805 0.86328-3.2383 0.98828-4.5859 0.070312-0.76953 0.070312-2.0117 0-2.6875l-0.054688-0.51953-0.51562-0.56641c-1.2109-1.332-2.0625-2.6133-3.2227-4.8672-0.27734-0.53906-0.48828-0.9375-0.46875-0.88281 0.074219 0.20703 0.75781 2.707 0.87109 3.1836 0.40234 1.7031 0.55469 2.7773 0.59766 4.1836 0.035157 1.1836 0.015625 1.293-0.21094 1.293-0.054688 0-0.125-0.042969-0.15234-0.097656-0.027344-0.054688-0.0625-0.62109-0.082031-1.2656-0.039063-1.4414-0.25-2.875-0.64844-4.3359l-0.10547-0.39062 0.03125 1.0273c0.082032 2.7812-0.48437 5.3438-1.7188 7.8086-0.26172 0.52344-0.27344 0.48828 0.30469 1.1797 0.76562 0.91406 1.6641 1.6914 2.3789 2.0547 0.54688 0.27734 1.4297 0.58984 1.6055 0.56641 0.050781-0.003907 0.19141-0.38281 0.40234-1.0938zm-6.4023-0.58594c2.2695-3.6289 3.0742-6.2891 2.9844-9.832-0.035156-1.3711-0.13672-2.0352-0.62891-4.1484-0.17578-0.75-0.37109-1.6016-0.4375-1.8906-0.066406-0.28906-0.14453-0.52734-0.17188-0.52734-0.027344 0-0.48828 0.21484-1.0234 0.48047-0.53516 0.26172-1.3242 0.62109-1.75 0.79688-0.42969 0.17578-0.78125 0.32422-0.78906 0.32812-0.003907 0.003906 0.125 0.54688 0.28516 1.2031 0.89062 3.5938 1.1992 5.6406 1.1523 7.6016-0.015625 0.62109-0.027344 0.67969-0.12891 0.71484-0.22656 0.074218-0.25391-0.027344-0.28906-1.1836-0.066406-2.0742-0.30469-3.5586-1.0703-6.6953l-0.36328-1.4805-0.78906 0.26953c-0.65625 0.22266-1.8125 0.54688-2.4336 0.68359l-0.14453 0.03125-0.035157 0.88672c-0.058593 1.5117 0.10156 4.1914 0.35547 5.8711 0.50391 3.3555 1.3984 5.6602 2.7305 7.0625 0.42969 0.45312 0.80078 0.75391 1.2969 1.0508 0.26172 0.15625 0.34375 0.18359 0.39453 0.12891 0.035156-0.039063 0.42188-0.64453 0.86328-1.3477zm35.766 1.2734c2.4688-0.29297 5.5352-1.1055 8.3086-2.1992 0.46484-0.18359 0.85938-0.35156 0.87109-0.37109 0.011718-0.019531-0.28516-0.35156-0.66016-0.73828l-0.67969-0.70312-0.60547 0.18359c-1.0781 0.32812-2.9336 1.0117-5.3633 1.9727-0.27344 0.10938-0.41016 0.074218-0.375-0.09375 0.015625-0.074219 0.21875-0.18359 0.74219-0.39844 1.2031-0.49219 3.0508-1.1719 4.2266-1.5586 0.61328-0.20312 1.1211-0.37109 1.1328-0.37891 0.011719-0.003906-0.11328-0.17188-0.27734-0.36328-0.16406-0.19531-0.37109-0.44531-0.46484-0.5625-0.15625-0.19922-0.19922-0.21484-0.66797-0.29688-0.37891-0.066406-0.72266-0.078125-1.418-0.058594-0.95703 0.03125-1.3828 0.10547-2.3086 0.41016-1.3906 0.45313-3.8867 1.8008-5.0391 2.7227-0.73828 0.58594-1.6836 1.3945-1.9023 1.6211l-0.21484 0.22266 0.24219 0.14062c0.32422 0.1875 0.99609 0.41016 1.4414 0.47266 0.59375 0.085938 2.2188 0.074219 3.0156-0.023438zm14.605-0.058593c0.51172-0.65234-0.76172-2.9844-2.8672-5.25-2.1797-2.3438-4.6289-4.0547-5.8086-4.0547-0.40625 0-0.54688 0.13672-0.54688 0.52734 0 1.9766 4.332 6.9336 7.4219 8.4922 0.63672 0.32031 0.95312 0.42188 1.3438 0.42578 0.30859 0.003906 0.35547-0.007813 0.45703-0.14062zm-63.656-1.4062c0.17188-0.19922 0.57031-0.65234 0.87891-1.0039 2.8203-3.1953 4.5195-5.9648 5.3633-8.75 0.16797-0.55469 0.59766-2.5312 0.72656-3.3555l0.039062-0.23438-0.18359 0.042969c-0.23828 0.054687-1.8008 0.054687-2.0312 0.003906-0.17188-0.039063-0.19141-0.023438-0.60156 0.49609-1.4531 1.8438-2.4258 3.7891-2.7812 5.5781-0.10156 0.50781-0.15234 0.61328-0.30469 0.61328-0.20703 0-0.23828-0.13281-0.14063-0.62109 0.35547-1.8086 1.457-4.043 2.8555-5.7773l0.38672-0.48047-0.16797-0.16016c-0.44922-0.42188-0.39844-1 0.15234-1.7734 0.27344-0.38281 0.94141-1.043 1.4883-1.4688 0.20703-0.16016 0.375-0.30078 0.375-0.31641 0-0.027344-0.83203 0.46094-1.5 0.88281-1.3438 0.84766-2.2617 1.5703-3.2578 2.5664-0.97266 0.97266-1.4883 1.6602-2.0039 2.6797-0.81641 1.6094-1.125 3.2031-1.0586 5.4688 0.0625 2.1406 0.40625 4.2344 0.95312 5.7617 0.10938 0.30078 0.19922 0.5625 0.19922 0.57813 0 0.015624 0.070312-0.058594 0.15234-0.16406s0.29297-0.35547 0.46484-0.55469zm47.91-2.3164c1.4609-0.87891 2.7422-1.4727 3.9609-1.8281 0.35156-0.10156 0.60156-0.19141 0.55469-0.19141-0.046875-0.003906-0.51953-0.027343-1.0547-0.058593-1.1055-0.0625-2.4883-0.003907-3.7773 0.16406-0.44141 0.058594-0.83594 0.089844-0.875 0.074219-0.078125-0.03125-0.10156-0.21484-0.03125-0.25781 0.058593-0.039062 1.1758-0.18359 1.9609-0.25781 0.74609-0.074219 2.6406-0.074219 3.5586-0.003906 0.35156 0.027343 0.64453 0.042968 0.65234 0.039062 0.007812-0.003906-0.33203-0.10547-0.75-0.22266-0.42188-0.11719-1.1172-0.33203-1.5469-0.47656l-0.78125-0.26172-0.35938 0.18359c-0.19531 0.10156-0.46875 0.20312-0.60547 0.22266-0.31641 0.050782-0.39453-0.042968-0.58984-0.66797-0.13672-0.44531-0.14844-0.46094-0.40234-0.58203-0.14453-0.070312-0.4375-0.23437-0.65625-0.37109s-0.42578-0.24609-0.45703-0.24609c-0.035156 0-0.28516 0.089844-0.55859 0.19922l-0.49609 0.19922-0.41406 0.70313c-0.39844 0.68359-1.375 2.418-1.5547 2.7695l-0.089844 0.17188 0.45703 0.27734c0.73828 0.44922 1.3125 0.71484 1.9336 0.89453 0.78906 0.22656 0.78516 0.22656 0.94141 0.12891 0.078125-0.046875 0.51953-0.31641 0.98828-0.59766zm-19.383-1.8281c0.015626-0.015626-0.003906-0.21484-0.042968-0.4375-0.039063-0.22656-0.14844-1.0898-0.24219-1.918-0.19141-1.6797-0.28516-2.1836-0.61328-3.3672-0.76562-2.7305-1.5977-4.4844-2.8984-6.0938-0.68359-0.84766-1.1055-1.1133-3.6602-2.3164-0.93359-0.4375-1.7188-0.82031-1.7461-0.84766-0.03125-0.03125-0.22266 0.097656-0.50391 0.33984-0.25 0.21484-0.66797 0.55469-0.9375 0.75391l-0.48438 0.35938 0.57031 0.53516c2.0195 1.9023 3.7422 4.1719 5.1211 6.75 0.28516 0.53516 0.3125 0.67578 0.14844 0.76562-0.15625 0.082031-0.27734-0.058594-0.57812-0.65625-0.67969-1.3477-1.832-3.0469-3.1016-4.5703-0.59766-0.71875-1.8242-1.9805-2.2852-2.3555l-0.26172-0.21094-0.48828 0.30469c-0.26953 0.16797-0.60547 0.37109-0.75 0.45703-0.14453 0.082031-0.25391 0.16797-0.24219 0.1875s0.16406 0.375 0.33984 0.78516c2.1836 5.1367 4.1289 7.9531 6.6719 9.6602 0.51953 0.34766 1.5547 0.875 2.168 1.1016 0.61719 0.22656 2.2656 0.66406 2.8164 0.74219 0.40625 0.058593 0.96094 0.078124 1.0039 0.039062zm26.902-0.21875c0-0.015626-0.13281-0.23438-0.30078-0.48828-0.34766-0.53516-0.76953-1.3555-0.87109-1.6992-0.039062-0.12891-0.097656-0.25781-0.13281-0.28516-0.035157-0.027343-0.54688-0.19922-1.1367-0.38672l-1.0781-0.33594-0.14062 0.17578c-0.21484 0.26562-0.9375 0.96094-1.3047 1.25-0.17969 0.14062-0.30469 0.27344-0.28125 0.29688 0.125 0.11719 2.2578 0.75391 3.9883 1.1953 1.2461 0.31641 1.2539 0.31641 1.2539 0.27734zm-5.8242-1.6797c0.88281-0.60156 1.7422-1.457 2.3008-2.3086 0.66797-1.0117 1.0742-2.1484 1.2656-3.5312 0.027344-0.20703 0.007812-0.26172-0.20703-0.55469-0.50781-0.69531-1.0234-1.6719-1.2422-2.3516-0.074219-0.23438-0.10547-0.27734-0.13672-0.19531-0.019531 0.058594-0.25781 1.043-0.52344 2.1914-0.60938 2.625-0.57812 2.5273-0.75781 2.5469-0.3125 0.039063-0.30859-0.015625 0.16797-2.0664 0.24609-1.0547 0.44531-1.9375 0.44531-1.9648 0-0.023437-0.082032 0.09375-0.17969 0.26172-0.42578 0.73047-0.95703 1.332-1.6094 1.8242-0.37891 0.28906-1.2969 0.80078-1.668 0.93359-0.15234 0.054688-0.26562 0.12891-0.26562 0.17578 0 0.13672 0.375 1.4453 0.64062 2.2344 0.14062 0.41406 0.39062 1.2578 0.55859 1.8789 0.16797 0.62109 0.32812 1.1797 0.36328 1.2383 0.054688 0.10156 0.070313 0.10156 0.26562 0.023438 0.11328-0.046876 0.375-0.19922 0.58203-0.33984zm-1.6289-0.70312c-0.003906-0.18359-0.72656-2.4883-0.77734-2.4883-0.042969 0.003906-0.77734 1.2422-0.77734 1.3125 0 0.10938 0.6875 0.70703 1.0859 0.94531 0.35156 0.21094 0.47266 0.26562 0.47266 0.22656zm-1.5586-0.62891c0-0.03125-0.046876-0.10547-0.10547-0.16016-0.10156-0.09375-0.10938-0.089843-0.17578 0.03125-0.039063 0.070313-0.10547 0.1875-0.14844 0.25391l-0.082031 0.125 0.25781-0.09375c0.14062-0.050781 0.25781-0.125 0.25781-0.15625zm7.6914-0.13281c0.066406-0.55859 0.35938-0.75781 1.0352-0.70703l0.42188 0.03125-0.14062-0.10938c-0.58984-0.45703-2.2422-1.4492-2.3008-1.3789-0.007813 0.007812-0.12891 0.25781-0.26562 0.55078-0.13672 0.29297-0.33984 0.67578-0.45312 0.85156-0.11328 0.17578-0.21094 0.34766-0.21875 0.38281-0.011719 0.054688 1.6289 0.63672 1.8281 0.65234 0.035156 0.003906 0.078125-0.12109 0.09375-0.26953zm4.7578-0.085937c0.33594-0.44531 0.78125-1.6133 0.99219-2.5898 0.13672-0.63672 0.13281-2 0-2.6875-0.37891-1.9141-1.3555-3.6289-3.1055-5.4531l-0.58203-0.60547-0.46875 0.42969c-0.25781 0.23828-0.64844 0.55078-0.86719 0.69141-0.22266 0.14453-0.39062 0.29297-0.37891 0.33203 0.082031 0.25391 2.3945 3.9102 2.9297 4.6328 0.14844 0.19922 0.058593 0.40234-0.16406 0.375-0.125-0.015625-0.26953-0.19922-0.89844-1.1367-0.41406-0.61719-1.1016-1.6992-1.5312-2.4062-0.42969-0.70703-0.80469-1.2734-0.83594-1.2617-0.55469 0.24219-1.1172 0.44922-1.4922 0.54688l-0.46875 0.12109-0.066406 0.29297c-0.058594 0.25391-0.050781 0.35547 0.054688 0.77344 0.28906 1.1484 0.9375 2.3984 1.7812 3.4141 0.49219 0.59766 1.6367 1.7422 2.5859 2.5898 0.48828 0.4375 1.2031 1.1094 1.582 1.4961 0.38281 0.38281 0.70703 0.69922 0.72266 0.69922s0.11328-0.11328 0.21484-0.25zm-26.656 0.082031c0.48047-0.054688 1.0859-0.19531 1.0859-0.25 0-0.015625-0.085938-0.19531-0.1875-0.40234-0.10156-0.20703-0.44141-0.98828-0.75391-1.7383-0.58984-1.4141-0.89453-2.0273-1.4414-2.9023-0.83984-1.3398-1.2852-1.9688-2.0078-2.8359-0.33984-0.40625-0.44141-0.49609-0.63672-0.54297-1.2344-0.30859-2.1094-0.58203-3.8711-1.2148-0.26172-0.09375-0.42578-0.14062-0.37109-0.10156 0.058594 0.039062 0.28125 0.17969 0.5 0.31641 1.8008 1.1211 3.4453 2.8086 4.7656 4.9023 0.40625 0.64453 0.45312 0.78906 0.28125 0.88281-0.15234 0.082031-0.23047 0-0.69141-0.72266-1.0039-1.5781-2.2422-2.9766-3.4844-3.9375-0.24609-0.19141-0.44531-0.32812-0.44531-0.30859s0.10938 0.16406 0.24219 0.32422c0.88281 1.0469 1.7969 2.8164 2.4219 4.6953 0.44531 1.3398 0.89062 3.1133 0.89453 3.5586 0 0.10156 0.03125 0.19531 0.070312 0.20703 0.34375 0.125 2.7461 0.17969 3.6289 0.082031zm10.422-2.8867c0.32422-0.089843 1.0195-0.25391 1.5469-0.36328 2.6367-0.54688 4.0508-1.1523 5.168-2.2148 0.52734-0.50391 0.83203-0.92969 1.1797-1.6562 0.24219-0.51172 0.61328-1.6016 0.61328-1.8047 0-0.058594-0.070313-0.066407-0.32031-0.042969-0.60547 0.0625-2.0234-0.14062-2.7227-0.39062l-0.23438-0.082031-0.31641 0.59375c-0.35938 0.67578-1.4961 2.6016-1.6289 2.75-0.12109 0.14062-0.36328 0.10547-0.38672-0.054688-0.011719-0.078125 0.22656-0.53516 0.67188-1.2773 0.37891-0.63672 0.80859-1.3867 0.94922-1.668l0.25781-0.51172-0.32422-0.16406c-0.51953-0.27344-1.2734-0.80859-1.7539-1.2539l-0.45312-0.42188-0.38281 0.40234c-0.63672 0.67188-1.2539 1.6914-1.5938 2.6367-0.34375 0.95703-0.48047 1.7383-0.64844 3.6562-0.0625 0.73438-0.13672 1.4219-0.16406 1.5273-0.10156 0.41406-0.11719 0.5-0.078124 0.5 0.023437 0 0.30469-0.074219 0.625-0.16406zm21.539-2.2773c0.11719-0.027344 0.22656-0.066407 0.24609-0.085938 0.058593-0.0625-0.089844-0.77344-0.29297-1.3984-0.39062-1.1992-1.1641-2.5547-2.0625-3.6211l-0.43359-0.51562h-0.61328c-1.0352 0-2.3711-0.12109-3.3945-0.30859-0.10156-0.019531 0.058594 0.089844 0.39063 0.26953 1.9609 1.0625 3.4062 1.9102 3.6289 2.1367 0.10156 0.10156 0.11719 0.14844 0.066406 0.23828-0.085938 0.16406-0.26953 0.13672-0.60156-0.085937-0.52344-0.35156-3.2695-1.9141-3.3672-1.9141-0.019531 0 0.11328 0.17969 0.30078 0.40234 0.6875 0.8125 1.457 2.0938 1.8164 3.0312 0.078124 0.20703 0.21094 0.625 0.29297 0.92969l0.14844 0.55469 0.46875 0.11719c0.25781 0.066406 0.71875 0.15625 1.0234 0.20312 0.61719 0.09375 2.0508 0.12109 2.3828 0.042969zm-56.953-1.1172c4.4102-0.78906 10.75-4.0781 12.281-6.3672 0.43359-0.64844 0.42578-1.0625-0.019531-1.2734-1.3281-0.62891-5.3164 0.33203-9.1797 2.2148-1.3984 0.67969-2.125 1.0898-3.168 1.7852-0.98438 0.65625-1.543 1.1094-2.1406 1.7305-0.74219 0.77344-0.99219 1.3633-0.72266 1.7031 0.10938 0.13672 0.45703 0.28516 0.80469 0.33984 0.33594 0.050782 1.5156-0.019531 2.1406-0.13281zm34.887-1.0703c0.10937-0.6875 0.73047-2.207 1.1953-2.9219 0.125-0.19141 0.19531-0.33203 0.15625-0.30859-0.039062 0.023437-0.21094 0.13281-0.37891 0.24609-1.293 0.86719-2.9023 1.5352-3.9766 1.6445-0.3125 0.03125-0.35547 0.023437-0.41016-0.074219-0.10547-0.19531 0.035156-0.28125 0.6875-0.42969 1.2266-0.27344 2.1641-0.67578 3.3047-1.4219 0.37109-0.24219 0.67188-0.45312 0.67188-0.46875 0-0.015624-0.16406 0.03125-0.35938 0.10547-0.19922 0.074219-0.61719 0.19141-0.92969 0.26562-0.5 0.11328-0.71094 0.12891-1.7383 0.125-0.64062-0.003906-1.4062-0.03125-1.6953-0.070312-0.28906-0.039063-0.65234-0.078125-0.80469-0.09375l-0.27734-0.027344-0.58203 0.84766c-0.32031 0.46484-0.73047 1.0039-0.91016 1.1953-0.21875 0.23438-0.30078 0.35938-0.25 0.375 0.042969 0.015625 0.3125 0.078125 0.60547 0.14062 0.28906 0.0625 0.81641 0.19922 1.1719 0.30469 1.7695 0.52344 3.1016 0.78516 4.0625 0.80078l0.42578 0.003907zm-6.875-1.2891c0.11719-0.074219 0.26562-0.17578 0.33203-0.22266 0.13281-0.09375 0.94141-1.1445 1.0273-1.3359 0.042969-0.097656 0.007813-0.19531-0.19922-0.53906-0.23438-0.38672-0.27344-0.42578-0.50781-0.48438-0.37109-0.09375-1.2305-0.47656-1.5312-0.68359-0.40234-0.27344-0.42969-0.38281-0.1875-0.78125 0.23828-0.39844 0.25-0.37891-0.44531-0.83594-1.2617-0.83203-2.6484-1.3672-4.3398-1.6719-2.3984-0.43359-4.9414-0.39844-7.9375 0.10547-0.73438 0.125-2.0117 0.39453-2.4609 0.51562-0.16406 0.046875-0.16016 0.046875 0.125 0.10938 0.42187 0.09375 0.64062 0.19531 0.89062 0.42188l0.22266 0.19922 0.9375-0.13672c3.2188-0.46875 6.1953-0.22656 8.668 0.69531 0.28125 0.10547 0.3125 0.13281 0.29687 0.26562-0.023437 0.21094-0.20703 0.21484-0.77734 0.015625-1.0234-0.35938-2.2109-0.61328-3.4609-0.73047-1.0898-0.10547-3.3555-0.03125-4.5352 0.14062-0.53516 0.078125-1.0039 0.15625-1.043 0.17188-0.039062 0.015625-0.070312 0.085937-0.070312 0.16406 0 0.19141-0.19141 0.61719-0.42188 0.94141-0.10938 0.14844-0.1875 0.27734-0.17969 0.28516 0.011719 0.007812 0.47656 0.16797 1.0352 0.35938 0.55859 0.19141 1.8359 0.64844 2.8359 1.0156 2.1797 0.80469 3.0352 1.0977 3.957 1.3516 2.0625 0.56641 3.7617 0.78906 6.1289 0.80078l1.4297 0.003906zm16.75-0.91797c1.3438-0.27344 2.4453-0.84766 3.4141-1.7773 1.0781-1.0312 1.6992-2.1992 1.9375-3.6172 0.078125-0.47266 0.0625-1.5938-0.027344-2.0625-0.50781-2.6406-2.5234-4.6211-5.3438-5.2617-0.625-0.14062-2.1484-0.14062-2.8086 0-2.6641 0.57031-4.6172 2.375-5.293 4.8984-0.10156 0.38281-0.12109 0.60547-0.125 1.4531-0.003906 0.88281 0.011718 1.0625 0.12891 1.5 0.30469 1.1484 0.86719 2.125 1.7227 2.9805 1.6602 1.6602 4.0469 2.3633 6.3945 1.8867zm-14.934-1.3477c-0.03125-0.046875-0.24219-0.058594-0.24219-0.007812 0 0.019531 0.027344 0.082031 0.058594 0.14453 0.058594 0.10547 0.0625 0.10938 0.13281 0.007812 0.039063-0.054687 0.0625-0.12109 0.046876-0.14453zm4.9297-0.23438c0.63672-0.14062 1.1914-0.33594 1.8477-0.65234l0.59375-0.28516-0.14063-0.22656c-0.23047-0.36719-0.61328-1.1992-0.74609-1.6055-0.11328-0.35938-0.12891-0.375-0.26953-0.34766-0.60547 0.125-2.8945 0.47656-3.0039 0.46484-0.074219-0.007812-0.16406-0.058593-0.19531-0.11328-0.13281-0.21094 0.054687-0.26953 1.6719-0.53906l1.5469-0.25781-0.011719-0.19141c-0.035156-0.55859-0.03125-1.7188 0.007812-1.875l0.042969-0.17969h-0.5c-2.9023 0-5.4766 1.0859-7.1914 3.0312-0.40234 0.45703-1.1055 1.4531-1.1055 1.5625 0 0.09375 0.79297 0.48438 1.3789 0.67969 0.88672 0.29297 2.2422 0.55469 3.3203 0.64062 0.64844 0.050781 2.3398-0.007813 2.7539-0.10156zm21.324-0.22266c1.2422-0.15234 2.3867-0.42969 3.3516-0.8125 0.64453-0.25391 1.4648-0.69141 1.7305-0.91797l0.23438-0.19922-0.097656-0.16797c-0.14453-0.23437-1.0234-1.0742-1.5234-1.4492-1.0078-0.75781-2.0898-1.3359-3.3633-1.7969-2-0.72266-3.957-1.0625-5.3398-0.92188-0.33203 0.03125-0.60547 0.066406-0.61328 0.074218-0.007812 0.007813 0.023438 0.1875 0.066406 0.40234 0.042969 0.21484 0.089844 0.75781 0.097657 1.2109 0.011719 0.45312 0.027343 0.83203 0.039062 0.84375 0.042969 0.042968 2.1289 0.36328 3.5977 0.55469 0.83594 0.10547 1.543 0.21094 1.5703 0.22656 0.089844 0.054687 0.058594 0.29688-0.042969 0.35156-0.10547 0.054688-2.6953-0.26562-4.1836-0.51562-0.47266-0.082031-0.91016-0.15234-0.96484-0.15625-0.085938-0.007812-0.125 0.070313-0.23828 0.48438-0.14844 0.55859-0.52344 1.3906-0.86328 1.9102-0.125 0.19141-0.21094 0.36328-0.19141 0.38281 0.14453 0.14453 1.8125 0.48047 2.8711 0.57422 0.76562 0.070312 3.0234 0.019531 3.8672-0.082032zm-28.277-2.5586c0.58594-0.74609 1.6367-1.6328 2.6602-2.2383l0.18359-0.10938-0.50781-0.32031c-0.70312-0.44531-1.4336-1.0078-2.0352-1.5586-0.46484-0.42578-0.51172-0.45703-0.59375-0.37891-0.13281 0.13281-0.51172 0.097656-0.8125-0.078125-0.14063-0.082031-0.51953-0.32812-0.83984-0.54688-0.55469-0.37891-1.9375-1.1758-1.9648-1.1328-0.007812 0.007812-0.11719 0.26953-0.24609 0.57422-0.48438 1.1484-1.2891 2.3008-2.2852 3.2695-0.33984 0.33203-0.61719 0.60938-0.61719 0.61719 0 0.007813 0.16797 0.03125 0.375 0.054688 1.0469 0.10547 2.5078 0.4375 3.4609 0.79297 0.71875 0.26562 1.6367 0.74609 2.2773 1.1953 0.5 0.34766 0.53516 0.36328 0.61328 0.26953 0.046875-0.054687 0.19531-0.24219 0.33203-0.41406zm-12.805-1.7656c0.57031-0.24609 1.375-1.1406 2.0547-2.293l0.23047-0.39062-0.14062-0.22266c-0.79688-1.2578-1.4219-2.5-1.7305-3.4492l-0.21875-0.66406-0.039062 0.54297c-0.035157 0.46875-0.027344 0.96484 0.046875 3.0352 0.011718 0.28125 0 0.30859-0.12109 0.32422-0.074219 0.007813-0.15234-0.003906-0.17578-0.027343-0.097657-0.097657-0.16406-1.0352-0.16406-2.2461 0-0.6875 0.015625-1.3398 0.035156-1.4453 0.03125-0.17187 0.007813-0.14844-0.17578 0.16797-0.26953 0.46875-0.88672 1.0781-1.6992 1.6875l-0.64844 0.48438 0.058594 0.20703c0.35547 1.2969 1.5859 3.6523 2.1875 4.1758 0.21875 0.19141 0.28125 0.20703 0.51172 0.10547zm1.4727-0.097656h0.20312l0.035156-0.32031c0.019532-0.17578 0.046875-0.41797 0.066406-0.54297l0.03125-0.22266-0.1875 0.23438c-0.10156 0.12891-0.32422 0.39062-0.49219 0.57812l-0.30469 0.34766 0.22266-0.039062c0.12109-0.019531 0.3125-0.039062 0.42578-0.039062zm2.1445-0.13672c0.039063-0.03125-0.39844-0.89844-0.72656-1.4375-0.35938-0.59375-0.36328-0.60156-0.44922-0.47266-0.066406 0.10547-0.26172 1.5352-0.26172 1.918 0 0.046874 0.19531 0.054687 0.71094 0.03125 0.39062-0.015626 0.71484-0.03125 0.72266-0.042969zm1.9609-0.30469c1.5547-1.2891 2.8086-3.3164 3.1992-5.1758 0.14453-0.69141 0.13281-1.7734-0.027343-2.3867-0.12109-0.45703-0.39453-1.0742-0.62891-1.418-0.066406-0.09375-0.37891-0.4375-0.69922-0.76562l-0.58203-0.59766-0.43359 0.4375c-0.50391 0.50781-1.043 0.92969-1.5195 1.1797-0.18359 0.097656-0.33984 0.17969-0.34375 0.18359-0.007813 0.003906 0.066406 0.30859 0.15625 0.67188 0.42969 1.7031 0.68359 3.2852 0.55078 3.4453-0.085938 0.10156-0.19141 0.10938-0.26953 0.015625-0.035157-0.042969-0.085938-0.30859-0.12109-0.59766s-0.11328-0.77734-0.17188-1.082c-0.10547-0.53516-0.49609-2.207-0.51953-2.2383-0.007813-0.007812-0.24219 0.058594-0.51953 0.15234-0.83594 0.27344-1.3906 0.35938-2.332 0.36328l-0.84766 0.003906v0.14062c0 0.36719 0.18359 1.293 0.36328 1.8281 0.34766 1.0391 0.67578 1.668 2.0625 3.9414 0.37891 0.61719 0.79688 1.3672 0.92969 1.668l0.24609 0.54297 0.38281 0.03125c0.21094 0.019531 0.44531 0.039062 0.52344 0.042968 0.10156 0.007813 0.27344-0.097656 0.60938-0.375zm11.336-0.55469c0.34766-0.125 0.92188-0.28516 1.2773-0.35938 0.53125-0.10938 0.61719-0.13672 0.48047-0.17188-1.0195-0.23438-2.5312-0.73438-2.6875-0.88672-0.089844-0.085937-0.042969-0.28516 0.078125-0.32812 0.046875-0.019531 0.35156 0.066406 0.68359 0.1875 0.83203 0.30469 1.8398 0.57422 2.7891 0.74219 1.3672 0.23828 1.3516 0.25391 0.36328-0.25781-1-0.51562-1.707-0.96875-2.4492-1.5703-0.5625-0.45703-1.6094-1.5117-1.8359-1.8555-0.082031-0.125-0.19141-0.22266-0.24609-0.22266-0.16016 0-0.99609 0.21094-1.418 0.35547-0.80859 0.27734-1.918 0.82031-1.918 0.93359 0 0.31641 1.0547 1.5234 1.9844 2.2734 0.85938 0.69141 2.0508 1.4688 2.1875 1.4258 0.046875-0.015625 0.36719-0.12891 0.71484-0.25391zm25.91-0.76172c0.98047-0.53516 1.8047-1.0273 2.0664-1.2383 0.11328-0.089844 0.12891-0.12891 0.078125-0.21094-0.17969-0.29687-1.2969-0.95312-2.207-1.2969-1.082-0.40625-2.1211-0.60547-3.3164-0.62891l-0.67969-0.015625-0.33984 0.39062c-0.1875 0.21484-0.625 0.67188-0.96875 1.0195-0.38672 0.38672-0.58203 0.61719-0.50391 0.59766 1.5312-0.42578 3.4648-0.82812 3.6133-0.75 0.11719 0.0625 0.12891 0.23438 0.019531 0.32031-0.042968 0.039063-0.45312 0.13672-0.91406 0.22656-1.2109 0.23438-3.4805 0.83984-3.7266 0.99609-0.042969 0.027343 0.29688 0.046874 0.77734 0.050781 1.3555 0.003906 2.7031 0.24609 4.2148 0.76172 0.47266 0.16016 0.87109 0.29687 0.87891 0.30078 0.011719 0.003906 0.46094-0.23438 1-0.52734zm-21.449-0.53125c0.070312-0.19141 0.24219-0.57422 0.37891-0.84766 0.14062-0.27734 0.25391-0.51953 0.25391-0.53906 0-0.023437-0.42578-0.32031-0.94531-0.66016-1.4023-0.91797-3.2695-2.2773-3.4766-2.5273-0.054687-0.066406-0.058594-0.11719-0.015625-0.18359 0.12891-0.20703 0.27734-0.13672 1.3086 0.63672 1.0703 0.80078 3.293 2.3047 3.4102 2.3047 0.039063 0 0.13672-0.10156 0.22266-0.22266 0.19531-0.28125 0.87109-0.92578 1.3086-1.2461l0.33203-0.24609-0.33594-0.38281c-0.375-0.43359-1.0312-1.0078-1.6289-1.4336-1.7617-1.25-4.4297-2.3633-6.7383-2.8125-0.66406-0.12891-1.6641-0.19922-1.7148-0.12109-0.054688 0.085938 0.0625 0.44141 0.36328 1.0938 0.15234 0.33203 0.35156 0.82031 0.44531 1.0859 0.71875 2.0352 2.1211 3.7578 4.1953 5.1484 0.46875 0.31641 2.3398 1.3086 2.4648 1.3086 0.023437 0 0.10156-0.15625 0.16797-0.34766zm-28.453-0.32031c1.5273-0.39062 4.4688-2.1484 5.7656-3.4453 0.32422-0.32422 0.47266-0.53125 0.65234-0.89453 0.22266-0.45703 0.51172-1.2266 0.51172-1.3672 0-0.039063-0.082031-0.085938-0.17969-0.10938-0.72266-0.15625-1.7344-0.58984-2.3672-1.0195l-0.31641-0.21484-0.089844 0.11719c-0.046875 0.066406-0.46875 0.67969-0.9375 1.3672-0.86328 1.2695-1.2891 1.8594-1.625 2.2461-0.14844 0.17188-0.21094 0.20703-0.3125 0.17578-0.20312-0.0625-0.14453-0.22656 0.25781-0.74219 0.21094-0.26562 0.73828-1.0117 1.1758-1.6523s0.89062-1.3008 1.0117-1.4609l0.21875-0.29688-0.38672-0.40625c-0.43359-0.46094-0.74609-0.89453-1.0078-1.4141-0.11719-0.23438-0.19531-0.33594-0.24219-0.30859-0.90234 0.54687-1.8281 1.7031-2.3828 2.9766-0.71484 1.6484-1.1719 4.2695-1 5.7031 0.074218 0.625 0.089843 0.66797 0.27734 0.76562 0.20312 0.10938 0.47266 0.10156 0.97266-0.027344zm42.832-0.21484c0.80078-0.59375 2-1.793 2.7695-2.7617 1.0039-1.2656 2.6992-3.8984 3.1133-4.8281l0.14062-0.32031-0.21094-0.09375c-0.17578-0.078125-0.39453-0.09375-1.375-0.09375-0.99609 0-1.2578 0.019531-1.7656 0.125-1.9883 0.41797-3.6523 1.3047-5.1211 2.7344-0.53906 0.52344-1.2383 1.3711-1.4219 1.7148-0.058593 0.11328-0.050781 0.13672 0.10938 0.22266 0.21484 0.11719 0.91406 0.59375 1.1836 0.80859l0.19922 0.16016 0.48828-0.35156c0.64062-0.46094 1.9688-1.5078 2.6133-2.0586 0.51562-0.44141 0.66797-0.50781 0.79688-0.35156 0.11719 0.14062 0.011719 0.26562-0.80859 0.94531-0.57812 0.48047-2.5664 2.0156-2.7422 2.1172-0.011719 0.003906 0.13672 0.19531 0.32422 0.41797 0.38281 0.45312 0.96875 1.4062 1.0664 1.7305 0.035156 0.11328 0.09375 0.20703 0.13281 0.20703 0.039063 0 0.26563-0.14453 0.50391-0.32422zm-23.484-0.25781c0.019531-0.050781-0.082031-0.23437-0.24609-0.44922-0.40625-0.53516-0.52344-0.79297-0.50391-1.0898 0.007812-0.10547 0.30469-0.28906 1.0703-0.66797 0.44531-0.21875 0.54297-0.28906 0.57422-0.41797 0.019531-0.085937 0.050781-0.63281 0.070313-1.2148 0.027344-0.90625 0.015625-1.1523-0.082032-1.7227-0.15234-0.88672-0.37109-1.5859-0.5-1.582-0.050781 0-0.24609 0.039063-0.42969 0.085938-0.80469 0.20312-2.2422 0.16016-3.1211-0.089844l-0.34375-0.097656 0.54297 0.54297c0.60938 0.60937 1.2188 1.4805 1.6484 2.3516 0.24609 0.5 0.26172 0.55078 0.17969 0.63281-0.16016 0.16016-0.28516 0.042969-0.58594-0.54687-0.73438-1.4375-1.6055-2.4219-3.0195-3.4062-0.28516-0.19922-0.26562-0.17188 0.25781 0.36719 0.79297 0.82031 1.1133 1.3516 1.3711 2.3047 0.17188 0.625 0.16797 1.9297-0.007812 2.6914-0.066406 0.28906-0.11328 0.52734-0.10547 0.53125 0.007813 0.003906 0.35156 0.19141 0.76562 0.41406 0.41406 0.22266 1.0234 0.59375 1.3555 0.82422 0.54688 0.375 0.94531 0.61719 1.043 0.62109 0.019531 0 0.050781-0.039063 0.066406-0.082032zm1.6797-2.7617c0.17969-0.0625 0.50391-0.15234 0.71875-0.20312 0.21484-0.046875 0.40625-0.097657 0.42578-0.10938 0.019531-0.015625-0.066407-0.19141-0.19141-0.39453-0.30469-0.5-0.64844-1.2461-0.90234-1.9609-0.11328-0.32031-0.27734-0.72266-0.35938-0.89062-0.082032-0.16797-0.21094-0.46094-0.27734-0.65234-0.070312-0.19141-0.15234-0.34766-0.17969-0.34766-0.03125 0-0.042968 0.042969-0.027343 0.097656 0.015625 0.054688 0.09375 0.31641 0.17188 0.58594 0.24219 0.81641 0.32812 1.4414 0.33594 2.4023 0.003907 0.48828-0.011719 1.0469-0.039062 1.2383-0.023438 0.19141-0.035157 0.34766-0.023438 0.34766s0.16797-0.050781 0.35156-0.11328zm11.957-0.82422c0.27734-0.09375 0.76172-0.21484 1.0703-0.26953 0.55859-0.09375 0.56641-0.097656 0.53906-0.23828-0.03125-0.15625-0.23828-1.8086-0.42578-3.4141-0.12109-1.0234-0.12109-1.0508-0.019531-1.125 0.12891-0.09375 0.14844-0.09375 0.26562-0.003906 0.078125 0.054687 0.13281 0.37891 0.28906 1.7188 0.10547 0.90625 0.23047 1.918 0.27734 2.2461 0.046876 0.32812 0.082032 0.61719 0.082032 0.64453 0 0.023437 0.19531 0.046875 0.42969 0.046875 0.67188 0 1.8789 0.21094 2.4258 0.42188 0.10156 0.039062 0.10547 0.003906 0.074219-0.87109-0.054687-1.7109-0.52734-3.3477-1.5117-5.2539-0.87891-1.6992-2.668-4.0859-3.0117-4.0156-0.16797 0.03125-0.41016 0.41406-0.79688 1.2578-0.84375 1.8477-1.2031 3.1016-1.3359 4.6367-0.11328 1.3164 0.12891 3 0.60938 4.2852l0.12109 0.32031 0.20312-0.10547c0.11328-0.058594 0.43359-0.17969 0.71094-0.27734zm-2.0234-0.21484c-0.43359-0.61328-2.0664-3.5742-2.0664-3.7461 0-0.12891 0.19531-0.23438 0.3125-0.16797 0.050781 0.027343 0.35156 0.53516 0.67188 1.1289 0.59766 1.1094 1.3086 2.3359 1.3359 2.3086 0.007812-0.007813-0.011719-0.10156-0.042969-0.20703-0.12891-0.44141-0.28125-1.5234-0.3125-2.2188-0.035157-0.81641 0.035156-1.6445 0.20703-2.4922 0.058594-0.28906 0.10938-0.56641 0.10938-0.62109 0-0.14453-1.5273-1.7031-2.1914-2.2383-0.62891-0.50391-1.2344-0.89062-1.3633-0.86719-0.11328 0.023437-0.20313 0.36719-0.27734 1.0781-0.035156 0.33203-0.11719 0.85547-0.18359 1.1602-0.10156 0.47656-0.12109 0.73438-0.12109 1.8086 0 1.1445 0.011719 1.3086 0.14844 1.9453 0.082031 0.38281 0.17969 0.71484 0.22266 0.73828 0.039062 0.023438 0.37109 0.20703 0.73828 0.41016 1.0312 0.56641 2.1953 1.4062 2.7227 1.9609 0.20312 0.21484 0.23828 0.22266 0.097656 0.019531zm8.1406-0.45703c0.62891-0.83594 1.8086-1.8828 2.8008-2.4883 0.43359-0.26562 0.4375-0.26562 0.46875-0.54297 0.019531-0.15234 0.035156-0.64062 0.035156-1.0859 0-1.8555-0.28125-3.8984-0.56641-4.0781-0.26172-0.16797-2.418 1.3984-3.6484 2.6484-0.79688 0.80859-0.82422 0.85156-0.73438 1.0625 0.42578 1.0391 0.76953 2.2344 0.92188 3.2031 0.050781 0.32031 0.097656 0.62109 0.10547 0.66797 0.007812 0.046875 0.09375-0.25391 0.19531-0.66797 0.26562-1.0977 0.52344-1.9727 0.73828-2.5078 0.17578-0.4375 0.19922-0.46875 0.36328-0.48438 0.25-0.023437 0.27734 0.125 0.10938 0.52734-0.074219 0.17969-0.20312 0.53516-0.28516 0.79688-0.14453 0.46484-0.86328 3.2578-0.86328 3.3594 0 0.066406 0.023438 0.039063 0.36328-0.41406zm-40.328-0.99219 0.26562-0.039062 0.23828-0.58203c0.46094-1.1406 1.0117-1.9805 1.7734-2.7109l0.46094-0.44531-0.58594 0.25391c-0.78516 0.33984-3.4062 1.668-4.3359 2.1953-0.41016 0.23437-0.78906 0.42578-0.83984 0.42578-0.054688 0-0.12891-0.039063-0.16797-0.085938-0.058594-0.070312-0.054687-0.10156 0.035156-0.1875 0.25781-0.25 3.7461-2.082 4.9414-2.6016l0.39062-0.16797-0.55469-0.039062c-1.1406-0.078126-2.3594-0.34375-3.3633-0.72266l-0.51562-0.19531-0.20312 0.17578c-0.5625 0.48828-1.4141 1.5547-1.9336 2.418-0.57812 0.96094-0.85156 1.9258-0.58203 2.0703 0.058593 0.03125 0.48828 0.082031 0.96094 0.11719 0.46875 0.03125 1.0547 0.082031 1.3008 0.10547 0.55078 0.054687 2.3516 0.0625 2.7148 0.015624zm11.105-0.44531c1.3438-0.32031 2.3438-0.85938 3.2305-1.7461 2.4219-2.4297 2.0234-6.1523-0.87109-8.0938-1.2227-0.82031-2.7539-1.1992-4.2969-1.0664-3.1367 0.27344-5.5078 2.4805-5.7188 5.3164-0.054688 0.76562 0.14844 1.7422 0.51953 2.4883 0.41406 0.83203 1.293 1.7773 2.1094 2.2695 0.78125 0.47266 1.4375 0.71484 2.4336 0.90625 0.56641 0.10938 1.9727 0.066406 2.5859-0.082031zm8.7852-1.6523c0.19922-0.019531 0.47266-0.058594 0.61328-0.089844 0.34375-0.078124 1.1289-0.32812 1.1953-0.38281 0.03125-0.023438 0.23047-0.10938 0.44531-0.19141 0.21484-0.082032 0.53906-0.22656 0.72266-0.32812 0.18359-0.10156 0.85547-0.39062 1.4922-0.64844 1.2383-0.49609 1.6484-0.71484 1.6484-0.875-0.003906-0.46094-0.93359-1.5469-2.168-2.5352-1.0703-0.85547-2.6797-1.7969-3.6172-2.1172-1.0859-0.36719-2.4844-0.41016-3.9219-0.11719-0.57812 0.11719-0.96875 0.24219-0.96875 0.30859 0 0.03125 0.078126 0.17188 0.17188 0.30859 0.41406 0.60156 0.75781 1.6406 0.8125 2.4531 0.03125 0.47266 0.042968 0.51563 0.15234 0.51563 0.0625 0 0.59375 0.039062 1.1758 0.082031 0.58203 0.046875 1.9219 0.10938 2.9766 0.14453 1.5898 0.050781 1.9258 0.078125 1.9805 0.14844 0.074218 0.097656 0.042968 0.21875-0.066406 0.26172-0.16016 0.0625-4.4844-0.11719-5.7266-0.23828-0.24609-0.023437-0.45312-0.039063-0.46094-0.03125-0.007813 0.003906-0.039063 0.17188-0.070313 0.36719-0.074219 0.47656-0.29688 1.1523-0.52734 1.6094l-0.1875 0.375 0.42969 0.22266c0.87109 0.44922 1.6992 0.70312 2.5547 0.78516 0.47656 0.046875 0.61719 0.042969 1.3477-0.023438zm-16.711-2.4336c-0.09375-0.43359-0.14062-0.87891-0.14062-1.3281v-0.48047l-0.43359-0.09375c-1.4492-0.31641-3.6641-1.082-3.8164-1.3242-0.070313-0.11328 0-0.26172 0.125-0.26172 0.058594 0 0.28906 0.085938 0.51562 0.1875 0.64062 0.29297 1.6641 0.63672 2.6055 0.875 0.96094 0.24609 1.1133 0.26172 1.1133 0.12891 0-0.19141 0.24609-0.90234 0.46484-1.3438 0.125-0.25781 0.39844-0.69141 0.60547-0.96875 0.32031-0.41797 0.37109-0.51563 0.3125-0.58594-0.10938-0.13281-0.71484-0.54688-1.0312-0.70312-1.1914-0.59766-3.0391-0.66406-4.9766-0.17188-1.7773 0.44922-3.7422 1.4102-4.5898 2.2422-0.48047 0.47266-0.45703 0.55078 0.26172 0.99219 0.23047 0.14062 0.69531 0.4375 1.0352 0.65625 1.6992 1.1016 3.1719 1.7617 4.6992 2.1055 0.89844 0.20312 1.2812 0.24219 2.3555 0.25l0.9375 0.007812zm19.598-4.8086c0.23047-0.33984 0.70703-0.97656 1.0664-1.418 0.69922-0.86719 0.99219-1.2891 0.99219-1.4414 0-0.24609-0.75391-0.64844-1.7305-0.92969-1.0469-0.29688-2.0859-0.48438-3.3008-0.58984l-0.39062-0.03125-0.24219 0.49219c-0.44922 0.90625-0.80078 1.3867-1.6211 2.1992l-0.76953 0.76172 0.45703-0.16797c0.96484-0.35938 2.4688-0.77344 3.4141-0.9375 0.32422-0.058594 0.41797-0.058594 0.48828 0 0.21094 0.17578 0.058594 0.26562-0.69531 0.41797-0.84375 0.17187-2.0781 0.51562-2.8984 0.80859-0.83203 0.29688-0.88672 0.33984-0.37891 0.28906 0.61719-0.0625 1.75-0.042969 2.2227 0.039062 0.77344 0.13281 1.7695 0.51172 2.5312 0.96875 0.18359 0.10938 0.35547 0.19141 0.38672 0.17969 0.03125-0.007813 0.24219-0.29297 0.47266-0.63281zm-7.3516-0.44141c2.3672-1.7461 3.3438-3.0195 3.9531-5.1602 0.28906-1.0234 0.40234-2.7148 0.21875-3.3906-0.10547-0.39844-0.30859-0.48828-1.1562-0.51953-1.0508-0.039062-2.0781 0.21484-3.2617 0.80078-1.2422 0.61719-2.2969 1.4102-3.4727 2.6211-0.66016 0.67969-0.77734 0.82812-1.0117 1.2969-0.25781 0.51562-0.54297 1.4648-0.625 2.1016l-0.035156 0.27344 0.4375 0.039062c0.47656 0.042969 1.418 0.25 1.8008 0.40625 0.14844 0.058594 0.25 0.074219 0.26172 0.039063 0.0625-0.19141 0.6875-1.1992 1.0938-1.7695 0.86719-1.2188 1.9766-2.3555 2.6562-2.7227 0.22266-0.12109 0.29297-0.13672 0.35547-0.082032 0.16016 0.13281 0.089844 0.26562-0.26562 0.47656-0.41406 0.25-1.4805 1.3008-1.9961 1.9688-0.47266 0.61328-0.97266 1.3672-1.2656 1.9023l-0.23437 0.42578 0.26562 0.15234c0.56641 0.32031 1.0469 0.67578 1.4297 1.0547 0.21875 0.21484 0.40234 0.39844 0.41406 0.40234 0.007813 0.003906 0.21094-0.13281 0.44531-0.30469zm-10.012-0.55078c0.44922-0.33594 1.6133-0.96875 1.7773-0.96875 0.039062 0 0.070312-0.03125 0.070312-0.074219 0-0.042968-0.16406-0.57812-0.35938-1.1914-0.69141-2.1562-0.91797-3.0195-1.0391-3.9805-0.0625-0.48828-0.058593-0.54688 0.027344-0.63281 0.1875-0.1875 0.28125-0.03125 0.37891 0.63281 0.15625 1.0586 0.33594 1.7422 1.0547 3.9688 0.19141 0.59766 0.35156 1.0898 0.35547 1.0938 0.003906 0.003906 0.21875-0.039063 0.47656-0.09375 0.26172-0.054688 0.66797-0.12109 0.90234-0.14063 0.48828-0.042968 0.42188 0.046876 0.54297-0.74609 0.31641-2.0898-0.93359-4.5469-3.6367-7.1602-0.8125-0.78516-1.2461-1.1289-1.4219-1.1289-0.375 0-1.207 1.6016-1.6641 3.1992-0.24609 0.85547-0.30859 1.3086-0.3125 2.2539-0.003907 0.89844 0 0.92969 0.17969 1.4453 0.28906 0.83594 0.83203 1.8281 2.0469 3.7656 0.042969 0.070312 0.089844 0.125 0.10547 0.125s0.24609-0.16406 0.51172-0.36328zm-1.9688-1.1953c-0.40625-0.67188-0.91797-1.7383-1.1016-2.2891-0.078125-0.23828-0.16016-0.63672-0.17969-0.87891-0.03125-0.42188-0.042969-0.45312-0.19141-0.53125-0.83984-0.43359-4.1055-1.3672-4.4688-1.2773-0.21094 0.050782-0.26953 0.33984-0.22656 1.0547 0.089844 1.4062 0.47656 2.8828 1.0703 4.0586 0.1875 0.375 0.19531 0.38281 0.37109 0.34766 0.95312-0.19531 1.2383-0.22656 2.2344-0.22656 0.99219-0.003906 1.6016 0.066407 2.0703 0.23047 0.13672 0.046875-1.1992-1.0117-2.2656-1.7969-0.54297-0.39844-0.89062-0.69141-0.89062-0.74609 0-0.15625 0.14062-0.23828 0.28125-0.16406 0.33984 0.17969 3.3203 2.4727 3.4961 2.6875 0.18359 0.22266 0.097657 0.019531-0.19922-0.46875zm7.3203-3.4648c0.48828-0.62891 2.125-2.1367 2.6641-2.457 0.10156-0.058594 0.17578-0.14844 0.17578-0.21094 0-0.058594-0.10156-0.41016-0.22656-0.78125-0.37109-1.1016-1.0664-2.3203-1.6289-2.8633-0.17969-0.17188-0.21875-0.1875-0.43359-0.15625-0.98438 0.13672-2.3281 1.1836-3.2031 2.5l-0.39844 0.59766 0.44141 0.58594c0.68359 0.91016 1.2656 1.9336 1.5625 2.75 0.070313 0.19922 0.13672 0.32422 0.14453 0.27734 0.007813-0.046874 0.089844-0.78516 0.18359-1.6406 0.21484-1.9688 0.21484-1.9648 0.34375-2.0352 0.19531-0.10547 0.28516 0.039063 0.24609 0.39453-0.019531 0.16797-0.12109 1.0938-0.23047 2.0547-0.10547 0.96094-0.19531 1.7734-0.19531 1.8086 0 0.03125 0.074219-0.074219 0.16797-0.23828 0.089843-0.16406 0.26562-0.42969 0.38672-0.58203z"/>
</svg>