<svg xmlns="http://www.w3.org/2000/svg" xmlns:xlink="http://www.w3.org/1999/xlink" version="1.1" x="0px" y="0px" viewBox="0 0 100 125" enable-background="new 0 0 100 100" xml:space="preserve"><g><path fill="#000000" d="M81.5,60h-62c-2.6,0-5.5-1.8-5.5-4.5v-42c0-2.7,2.9-4.5,5.5-4.5h62c2.6,0,4.5,1.9,4.5,4.5v42   C86,58.1,84.1,60,81.5,60z M19.5,10c-2.4,0-4.5,1.7-4.5,3.5v42c0,1.8,2.1,3.5,4.5,3.5h62c2.1,0,3.5-1.4,3.5-3.5v-42   c0-2.1-1.4-3.5-3.5-3.5H19.5z"/></g><g><path fill="#000000" d="M66.8,54H26.2c-3.4,0-6.2-2.8-6.2-6.2V21.2c0-3.4,2.8-6.2,6.2-6.2h40.7c3.4,0,6.2,2.8,6.2,6.2v26.6   C73,51.2,70.2,54,66.8,54z M26.2,16c-2.9,0-5.2,2.3-5.2,5.2v26.6c0,2.9,2.3,5.2,5.2,5.2h40.7c2.9,0,5.2-2.3,5.2-5.2V21.2   c0-2.9-2.3-5.2-5.2-5.2H26.2z"/></g><g><g><path fill="#000000" d="M49,76H22V59h27V76z M23,75h25V60H23V75z"/></g><g><path fill="#000000" d="M78,76H51V59h27V76z M52,75h25V60H52V75z"/></g></g><g><g><rect x="25" y="67" fill="#000000" width="21" height="1"/></g><g><path fill="#000000" d="M40,73h-9V62h9V73z M32,72h7v-9h-7V72z"/></g></g><g><g><rect x="54" y="67" fill="#000000" width="21" height="1"/></g><g><path fill="#000000" d="M69,73h-9V62h9V73z M61,72h7v-9h-7V72z"/></g></g><g><path fill="#000000" d="M84.2,86H15.8c-0.9,0-1.7-0.4-2.3-1.2C13,84,12.8,82.9,13.1,82l4.1-7h65.6l4,6.9c0.4,1,0.2,2-0.4,2.8   C85.9,85.6,85.1,86,84.2,86z M17.8,76l-3.7,6.4c-0.2,0.5-0.1,1.2,0.3,1.8c0.4,0.5,0.9,0.8,1.5,0.8h68.3c0.6,0,1.1-0.3,1.5-0.8   c0.4-0.6,0.5-1.2,0.3-1.9L82.2,76H17.8z"/></g><g><g><rect x="24" y="78" fill="#000000" width="4" height="1"/></g><g><rect x="30" y="78" fill="#000000" width="4" height="1"/></g><g><rect x="36" y="78" fill="#000000" width="4" height="1"/></g><g><rect x="42" y="78" fill="#000000" width="4" height="1"/></g><g><rect x="48" y="78" fill="#000000" width="4" height="1"/></g><g><rect x="54" y="78" fill="#000000" width="4" height="1"/></g><g><rect x="60" y="78" fill="#000000" width="4" height="1"/></g><g><rect x="66" y="78" fill="#000000" width="4" height="1"/></g><g><rect x="72" y="78" fill="#000000" width="4" height="1"/></g></g><g><g><rect x="24" y="82" fill="#000000" width="4" height="1"/></g><g><rect x="30" y="82" fill="#000000" width="4" height="1"/></g><g><rect x="36" y="82" fill="#000000" width="4" height="1"/></g><g><rect x="42" y="82" fill="#000000" width="4" height="1"/></g><g><rect x="48" y="82" fill="#000000" width="4" height="1"/></g><g><rect x="54" y="82" fill="#000000" width="4" height="1"/></g><g><rect x="60" y="82" fill="#000000" width="4" height="1"/></g><g><rect x="66" y="82" fill="#000000" width="4" height="1"/></g><g><rect x="72" y="82" fill="#000000" width="4" height="1"/></g></g><g><g><rect x="21" y="80" fill="#000000" width="4" height="1"/></g><g><rect x="27" y="80" fill="#000000" width="4" height="1"/></g><g><rect x="33" y="80" fill="#000000" width="4" height="1"/></g><g><rect x="39" y="80" fill="#000000" width="4" height="1"/></g><g><rect x="45" y="80" fill="#000000" width="4" height="1"/></g><g><rect x="51" y="80" fill="#000000" width="4" height="1"/></g><g><rect x="57" y="80" fill="#000000" width="4" height="1"/></g><g><rect x="63" y="80" fill="#000000" width="4" height="1"/></g><g><rect x="69" y="80" fill="#000000" width="4" height="1"/></g><g><rect x="75" y="80" fill="#000000" width="4" height="1"/></g></g><g><rect x="78" y="10" fill="#000000" width="1" height="50"/></g><g><path fill="#000000" d="M84,54h-4v-3h4V54z M81,53h2v-1h-2V53z"/></g><g><path fill="#000000" d="M73.5,57h-54c-1.4,0-2.5-1.1-2.5-2.5v-40c0-1.4,1.1-2.5,2.5-2.5h54c1.4,0,2.5,1.1,2.5,2.5v40   C76,55.9,74.9,57,73.5,57z M19.5,13c-0.8,0-1.5,0.7-1.5,1.5v40c0,0.8,0.7,1.5,1.5,1.5h54c0.8,0,1.5-0.7,1.5-1.5v-40   c0-0.8-0.7-1.5-1.5-1.5H19.5z"/></g></svg>